<svg xmlns="http://www.w3.org/2000/svg" viewBox="0 0 1072.68 211.86"><defs><style>.a,.b,.c{fill:#fff;}.a{fill-rule:evenodd;}.c{font-size:41.85px;font-family:Lato-Regular, Lato;}</style></defs><title>fccLogowhite</title><path class="a" d="M55.2,99.23H49.32c-2,0-3.09-.91-3.09-2.55,0-1.82,1.09-2.55,3.09-2.55H55.2V89c0-9,4.59-13.37,13.56-13.37a19.5,19.5,0,0,1,9.14,2,9.31,9.31,0,0,1,4.79,8.23c0,2.37-.91,3.27-2.55,3.27a3.07,3.07,0,0,1-2.73-2,18.15,18.15,0,0,0-1.81-4.24c-1.1-1.27-3.28-2-6.42-2-5.5,0-8.23,2.73-8.23,8.23v5h10.6c2.36,0,3.44.9,3.44,2.54,0,1.82-1.08,2.54-3.44,2.54H61v33.49c0,2-.91,3.09-2.54,3.09-1.82,0-2.55-1.09-2.55-3.09V99.16H55.2v.07Zm0,0"/><path class="a" d="M102.79,129.74V99.16H94.91c-2.18,0-3.27-.9-3.27-2.54,0-1.82,1.09-2.54,3.27-2.54h10.61c1.79,0,2.71,1.64,2.71,4.6,3.27-3.45,6.79-5.5,10.42-5.5,3.08,0,5.51.9,7.13,2.72,1.83,1.81,2.56,4.41,2.56,7.32,0,2-.91,3.08-2.56,3.08-1.08,0-1.81-.72-2.18-2a25.76,25.76,0,0,0-1.25-4,4.41,4.41,0,0,0-4-2,8.64,8.64,0,0,0-5.68,2.18,23.37,23.37,0,0,0-4.43,4.78V129.8h9.88c2.17,0,3.26.91,3.26,2.54,0,1.83-1.09,2.73-3.26,2.73H94.67c-2.17,0-3.27-.9-3.27-2.54,0-1.82,1.1-2.55,3.27-2.55h8v-.24Zm0,0"/><path class="a" d="M142.86,115.33v5.88c0,6.23,4.42,9.32,13.39,9.32a19.16,19.16,0,0,0,13.37-4.18c1.64-1.46,2.73-2.18,3.27-2.18,1.46,0,2.18.72,2.18,2.36s-1.08,3.27-3.26,5c-3.44,2.73-8.78,4.25-15.76,4.25-12.22,0-18.45-4.78-18.45-14.49V106.6A11.46,11.46,0,0,1,141.41,98c3.27-3.27,8.41-4.78,15-4.78,12,0,17.92,6,17.92,17.92,0,2.91-1.09,4.43-3.27,4.43H142.92v-.25Zm0-5.15H169c0-7.87-4.4-11.86-13.37-11.86a17.44,17.44,0,0,0-8.78,2.18c-2.54,1.81-4,4-4,6.59v3.09Zm0,0"/><path class="a" d="M188.82,115.33v5.88c0,6.23,4.43,9.32,13.38,9.32a23.56,23.56,0,0,0,7.87-1.09,24.35,24.35,0,0,0,5.52-3.09c1.62-1.46,2.71-2.18,3.25-2.18,1.46,0,2.19.72,2.19,2.36s-1.09,3.27-3.27,5c-3.46,2.73-8.78,4.25-15.75,4.25-12.23,0-18.46-4.78-18.46-14.49V106.6A11.47,11.47,0,0,1,187.37,98c3.26-3.27,8.41-4.78,15-4.78,12,0,17.91,6,17.91,17.92,0,2.91-1.09,4.43-3.27,4.43H188.88v-.25Zm0-5.15H215c0-7.87-4.43-11.86-13.39-11.86a17.44,17.44,0,0,0-8.78,2.18c-2.72,1.81-4,4-4,6.59v3.09Zm0,0"/><path class="a" d="M230,118.78V95.9C230,83.85,236.17,78,249,78c5.15,0,9.14,1.08,12.47,3.26A13.56,13.56,0,0,1,267,92.57c0,2.17-.91,3.27-2.72,3.27-1.27,0-2.18-1.1-2.73-3.27a18.87,18.87,0,0,0-2-5.15c-1.64-2.91-5.15-4.24-10.6-4.24-4.78,0-8.05,1.09-10.05,3.45-1.82,2.18-2.91,5.51-2.91,10.42v19c0,5,1.09,8.43,3.09,10.6,2.18,2.37,5.52,3.63,10.23,3.63,7.15,0,11.32-2.54,12.23-7.5.36-1.82.55-2.72.55-2.9a2.12,2.12,0,0,1,2.18-1.64c1.81,0,2.72,1.09,2.72,3.27a12.28,12.28,0,0,1-5.69,10.77c-3.09,2-7,3.1-12.05,3.1-5.87,0-10.41-1.29-13.74-4-3.87-2.56-5.5-6.9-5.5-12.6Zm0,0"/><path class="a" d="M275.34,121.87v-15c0-9.14,6.24-13.74,18.46-13.74s18.46,4.6,18.46,13.74v15q0,13.73-18.09,13.74c-12.77.18-18.83-4.42-18.83-13.74Zm31.49,0v-15c0-5.69-4.43-8.59-13.39-8.59-8.42,0-12.84,2.9-12.84,8.59v15c0,5.69,4.42,8.59,13.2,8.41,8.6.18,13-2.54,13-8.41Zm0,0"/><path class="a" d="M352.36,130.65a32.52,32.52,0,0,1-6.61,3.8,22.21,22.21,0,0,1-7.5,1.11,21.81,21.81,0,0,1-12.05-3.1,12.05,12.05,0,0,1-5.33-10.59V106.5A12,12,0,0,1,326,96.07,20.48,20.48,0,0,1,337.52,93a23.25,23.25,0,0,1,7.69,1.08,21.64,21.64,0,0,1,6.59,4V79.24c0-2.53.91-3.81,2.55-3.81,1.82,0,2.73,1.28,2.73,3.81v53.83c0,1.81-.91,2.72-2.54,2.72a1.84,1.84,0,0,1-2-1.81c0-.91-.18-1.82-.18-3.33Zm-.19-6V103.58a33.38,33.38,0,0,0-6.23-3.81,18.54,18.54,0,0,0-7.15-1.28c-3.26,0-6.24.55-8.23,1.82a8,8,0,0,0-4,7v14.47a7.34,7.34,0,0,0,4,7,18.61,18.61,0,0,0,8.41,1.82,18.4,18.4,0,0,0,7.33-1.27,49.58,49.58,0,0,0,5.87-4.61Zm0,0"/><path class="a" d="M372.33,115.33v5.88c0,6.23,4.43,9.32,13.38,9.32a23.7,23.7,0,0,0,7.88-1.09,24.14,24.14,0,0,0,5.5-3.09c1.64-1.46,2.73-2.18,3.27-2.18,1.45,0,2.18.72,2.18,2.36s-1.09,3.27-3.27,5c-3.44,2.73-8.78,4.25-15.74,4.25-12.23,0-18.46-4.78-18.46-14.49V106.6a11.45,11.45,0,0,1,3.8-8.59c3.27-3.27,8.43-4.78,15-4.78,12,0,17.91,6,17.91,17.92,0,2.91-1.09,4.43-3.26,4.43H372.39v-.25Zm0-5.15h26.16c0-7.87-4.42-11.86-13.37-11.86a17.46,17.46,0,0,0-8.8,2.18c-2.72,1.81-4,4-4,6.59v3.09Zm0,0"/><path class="a" d="M413.5,118.78V95.9c0-12.05,6.25-17.92,19-17.92,5.14,0,9.15,1.08,12.47,3.26a13.54,13.54,0,0,1,5.52,11.33c0,2.17-.92,3.27-2.73,3.27-1.27,0-2.19-1.1-2.72-3.27a18.28,18.28,0,0,0-2-5.15c-1.64-2.91-5.15-4.24-10.59-4.24-4.79,0-8.07,1.09-10.06,3.45-1.81,2.18-2.89,5.51-2.89,10.42v19c0,5,1.08,8.43,3.07,10.6,2.18,2.37,5.51,3.63,10.24,3.63,7.15,0,11.32-2.54,12.23-7.5.36-1.82.53-2.72.53-2.9a2.15,2.15,0,0,1,2.19-1.64c1.81,0,2.73,1.09,2.73,3.27a12.29,12.29,0,0,1-5.7,10.77c-3.07,2-6.95,3.1-12.05,3.1-5.86,0-10.4-1.29-13.73-4-3.7-2.56-5.52-6.9-5.52-12.6Zm0,0"/><path class="a" d="M488.35,130.65a32.79,32.79,0,0,1-6.25,3.8,19.34,19.34,0,0,1-7.14,1.11c-4.42,0-8-.91-10.78-2.74a11,11,0,0,1-5-9.67,11.3,11.3,0,0,1,5.14-9.88A18.41,18.41,0,0,1,475.5,110,39.29,39.29,0,0,1,488,112.54v-6.41a6.67,6.67,0,0,0-4.42-6.6A18.33,18.33,0,0,0,476,98.25c-7,0-10.58,1.83-11.32,5.7-.36,1.81-.54,2.55-.54,2.73a2.05,2.05,0,0,1-2.18,1.25c-1.82,0-2.9-1.08-2.9-3.07a11.19,11.19,0,0,1,3.26-7.69c2.55-2.91,7.51-4.42,14.29-4.42,5.52,0,9.32.9,12.05,2.55,3.09,2.17,4.78,5.86,4.78,11v18.64c0,2.19.37,3.65,1.28,4.43a12.15,12.15,0,0,0,2.54,1.08c.9.37,1.26,1.09,1.26,2.54s-.71,2.19-2.35,2.19a11.75,11.75,0,0,1-2.36-.54c-2-.73-3.28-1.09-3.64-1.28-1-.06-1.51-1.15-1.86-2.66Zm-.19-5.45v-7.69a39.44,39.44,0,0,0-11.51-2c-7.88,0-11.86,2.55-11.86,7.69a6.07,6.07,0,0,0,3.45,5.87,13.86,13.86,0,0,0,7.15,1.64,14.94,14.94,0,0,0,6.95-1.45,57.25,57.25,0,0,0,5.82-4.06Zm0,0"/><path class="a" d="M508.81,97.53a17.48,17.48,0,0,1,3.26-3.27,8.06,8.06,0,0,1,4.6-1.08c2.91,0,5.51,1.44,7.7,4.59a11,11,0,0,1,4-3.45,10.63,10.63,0,0,1,5.15-1.09c6.23,0,9.49,3.09,9.49,9.15V132c0,2.55-.89,3.63-2.72,3.63s-2.54-1.08-2.54-3.63V104.25c0-3.82-1.63-5.87-4.78-5.87-2.36,0-4.79,1.46-6.78,4.24v29.66c0,2.54-.91,3.64-2.54,3.64s-2.55-1.1-2.55-3.64V104.86c0-4.25-1.82-6.25-5.15-6.25-2.17,0-4.24,1.47-6.41,4.24v29.49c0,2.54-.91,3.64-2.72,3.64s-2.56-1.1-2.56-3.64V96c0-1.83.74-2.55,2.19-2.55a2,2,0,0,1,1.8,1.64,4.26,4.26,0,0,1,.57,2.48Zm0,0"/><path class="a" d="M556.39,97.53a24.09,24.09,0,0,1,14.29-4.42c11.14,0,16.65,4.79,16.65,13.94v15.19a12.29,12.29,0,0,1-4.79,10.22c-2.72,2.19-6.6,3.28-11.31,3.28a24,24,0,0,1-14.84-4.61v17.2c0,2.54-.91,4-2.55,4s-2.54-1.28-2.54-4V96.92c0-2.54.73-4,2.18-4,.74,0,1.46.54,2,1.63.19,1,.73,2.06.91,3Zm0,27.85a20.8,20.8,0,0,0,13.93,5.15c3.27,0,6-.55,8-1.82a6.86,6.86,0,0,0,3.64-6.42v-15.2a7.19,7.19,0,0,0-4-7,17.41,17.41,0,0,0-8.23-1.64,18,18,0,0,0-7.51,1.28c-1.82.73-3.63,2.36-6,4.78v20.9h.18v-.07Zm0,0"/><path class="a" d="M605.44,110.91q0-17.26,12-30.94c2.91-3.27,5.32-5,6.95-5a2.81,2.81,0,0,1,1.64.55,2.18,2.18,0,0,1,.74,1.44c0,.91-1.09,2.18-3.09,4.24a39.54,39.54,0,0,0-12.66,29.85c0,13.2,4.43,23.79,13,32,1.82,1.65,2.55,2.91,2.55,4a3.28,3.28,0,0,1-.73,1.64,2.75,2.75,0,0,1-1.64.73c-2,0-4.78-2.37-8.41-7-7.09-8.71-10.41-19.12-10.41-31.6Zm0,0"/><path class="a" d="M716.35,113.82c0,11.5-4,21.79-12.05,30.94-2.9,3.27-5.32,5-7,5a2.78,2.78,0,0,1-1.62-.54,2.57,2.57,0,0,1-.74-1.63c0-.91,1.09-2.18,3.09-4a39.56,39.56,0,0,0,12.66-29.85c0-13.19-4.43-23.79-13-32-1.82-1.64-2.54-2.91-2.54-4a3.23,3.23,0,0,1,.72-1.63,2.72,2.72,0,0,1,1.65-.73c1.81,0,4.78,2.36,8.41,7,6.71,8.72,10.41,19.14,10.41,31.55Zm0,0"/><path class="a" d="M686.3,147.2H635.56a3.19,3.19,0,1,1,0-6.37H686.3a3.11,3.11,0,0,1,3.19,3.19c-.46,1.81-1.36,3.18-3.19,3.18Zm0,0"/><path class="a" d="M650.11,81.24a10.62,10.62,0,0,1,4.24,8.25c0,9.12-12.48,19.17-12.48,28.68,0,10.24,7.89,16.84,15.4,18.83,1.08.19,1.44-.91.18-1.26-3.1-.73-6.43-4.78-6.43-11,0-5.87,5.69-8,7.87-10.77,2.37-2.91,1.81-6.6.37-7.7s-.37-2.54,2-.72c2.35,1.64,4.4,5,3.62,7.88-.89,3.81.38,6.05,2.36,6.42s4.24-.73,4-2.55-1.27-3.82-.74-3.82c1.46,0,4.43,3.46,4.43,9.15s-4.61,9.5-6.05,11c-.92.91.19,2,1.44,1.45a13.16,13.16,0,0,0,2.54-1.45,20.77,20.77,0,0,0,9.33-17.57c0-10.23-3.81-14.82-7.86-18.64s-5-2.9-3.83-.9c3.28,5.69,1.28,7.67-1.09,7.67-2.9,0-2.9-6.41-4.22-11.32-2.37-11-12.48-12.83-14.3-13-1.33-.62-3,.47-.79,1.38Zm0,0"/><path class="b" d="M960.6,57.66a7.6,7.6,0,1,0,7.58,7.59A7.61,7.61,0,0,0,960.6,57.66Z"/><path class="b" d="M996,39.13A82.61,82.61,0,0,0,932.8,51.3c0,.13,0,.26,0,.39,0,28.15-15.77,52.48-38.65,64a66.06,66.06,0,0,1-29.75,7c-1.1,0-2.18,0-3.26-.08a82.44,82.44,0,0,0,50.48,17.21,82,82,0,0,0,28.84-5.21c26.27-9.81,46.54-32.65,53.62-61a82.55,82.55,0,0,1,52.14-1.86A84.81,84.81,0,0,0,996,39.13Zm-35.4,41.33a15.2,15.2,0,1,1,15.21-15.2A15.18,15.18,0,0,1,960.58,80.46Z"/><path class="b" d="M896.73,99.3a45.05,45.05,0,0,1-20.23-4.78,48.43,48.43,0,0,1-26.29-43.41v-.26c-11.8-6-19.65-9.48-31.13-9.48a56.56,56.56,0,0,0-11.65,1.21,57.61,57.61,0,0,0-34.08,22.15A56.09,56.09,0,0,1,808.73,66a59.37,59.37,0,0,0,36.38,41.4,55.89,55.89,0,0,0,19.57,3.53,55.89,55.89,0,0,0,34.25-11.68C898.2,99.28,897.46,99.3,896.73,99.3ZM831.52,70.59A10.29,10.29,0,1,1,841.8,60.3,10.28,10.28,0,0,1,831.52,70.59Z"/><path class="b" d="M831.53,55.16a5.15,5.15,0,1,0,5.13,5.14A5.14,5.14,0,0,0,831.53,55.16Z"/><text class="c" transform="translate(836.01 185.01)">LISBON</text><rect class="b" x="754.51" y="107.11" width="13.11" height="13.11"/></svg>